<svg xmlns="http://www.w3.org/2000/svg" viewBox="0 0 214.56 65.96"><defs><style>.cls-1{fill:none;stroke:#131423;stroke-miterlimit:10;stroke-width:3.48px;}.cls-2{fill:#131423;}</style></defs><g id="Layer_2" data-name="Layer 2"><g id="Layer_1-2" data-name="Layer 1"><rect class="cls-1" x="1.74" y="1.74" width="62.47" height="62.47"/><path class="cls-1" d="M33,64.22,22.2,41.33A8.2,8.2,0,0,0,30.54,33a8.34,8.34,0,0,0-8.34-8.35H1.74V64.22Z"/><path class="cls-1" d="M33,1.74,43.76,24.63A8.21,8.21,0,0,0,35.41,33a8.35,8.35,0,0,0,8.35,8.35H64.22V1.74Z"/><path class="cls-2" d="M83.41,27.89h-5v2.29H83V32.3H78.46v4.39H76.3V25.76h7.11Z"/><path class="cls-2" d="M98.14,36.69l-.89-2.58H93l-.91,2.58H89.77l4-10.93h2.74l4,10.93ZM93.7,32h2.79L95.1,28Z"/><path class="cls-2" d="M114.56,36.69l-2.74-3.94h-1.19v3.94h-2.17V25.76H113a3.58,3.58,0,0,1,2.65,1,3.52,3.52,0,0,1,1,2.6,3.44,3.44,0,0,1-.62,2.14,3.06,3.06,0,0,1-1.75,1.12l3,4.11Zm-3.93-8.8V30.8h2.15a1.74,1.74,0,0,0,1.24-.38,1.36,1.36,0,0,0,.42-1.07,1.38,1.38,0,0,0-.42-1.07,1.79,1.79,0,0,0-1.24-.39Z"/><path class="cls-2" d="M129.89,36.87A5.25,5.25,0,0,1,126,35.26a5.58,5.58,0,0,1-1.56-4,5.58,5.58,0,0,1,1.56-4,5.32,5.32,0,0,1,9,2.32h-2.32a3,3,0,0,0-1.11-1.34,3.12,3.12,0,0,0-1.7-.47,3.08,3.08,0,0,0-2.37,1,4,4,0,0,0,0,5.07,3.08,3.08,0,0,0,2.37,1,3.12,3.12,0,0,0,1.7-.47,3,3,0,0,0,1.11-1.34H135a5.16,5.16,0,0,1-5.12,3.93Z"/><path class="cls-2" d="M149.28,36.69l-2.74-3.94h-1.19v3.94h-2.17V25.76h4.56a3.62,3.62,0,0,1,2.66,1,3.52,3.52,0,0,1,1,2.6,3.5,3.5,0,0,1-.62,2.14A3.12,3.12,0,0,1,149,32.58l3,4.11Zm-3.93-8.8V30.8h2.15a1.78,1.78,0,0,0,1.25-.38,1.39,1.39,0,0,0,.41-1.07,1.38,1.38,0,0,0-.42-1.07,1.77,1.77,0,0,0-1.24-.39Z"/><path class="cls-2" d="M167.07,27.89h-4.95v2.2h4.54v2.12h-4.54v2.35h4.95v2.13H160V25.76h7.12Z"/><path class="cls-2" d="M182.89,36.69l-.9-2.58h-4.28l-.91,2.58h-2.29l4-10.93h2.74l4,10.93ZM178.45,32h2.79l-1.4-4Z"/><path class="cls-2" d="M199.43,25.76v2.13h-3.06v8.8h-2.16v-8.8h-3.05V25.76Z"/><path class="cls-2" d="M214.56,27.89h-4.94v2.2h4.54v2.12h-4.54v2.35h4.94v2.13h-7.11V25.76h7.11Z"/></g></g></svg>